<mxfile host="Electron" modified="2023-05-28T15:43:26.900Z" agent="Mozilla/5.0 (Windows NT 10.0; Win64; x64) AppleWebKit/537.36 (KHTML, like Gecko) draw.io/21.2.8 Chrome/112.0.5615.165 Electron/24.2.0 Safari/537.36" etag="xAoBXbaqTgbRUQS6jVWN" version="21.2.8" type="device">
  <diagram name="Pagina-1" id="_gMM-VsUQ2rBHXcG_fBg">
    <mxGraphModel dx="611" dy="-524" grid="1" gridSize="10" guides="1" tooltips="1" connect="1" arrows="1" fold="1" page="1" pageScale="1" pageWidth="827" pageHeight="1169" math="0" shadow="0">
      <root>
        <mxCell id="0" />
        <mxCell id="1" parent="0" />
        <mxCell id="m19O2yobpiMkWHd_PPLP-2" value="&lt;p style=&quot;margin-left:18.0pt&quot; class=&quot;MsoNormal&quot;&gt;&lt;b&gt;4.b eliminaAssegnamentoCompito(&lt;u&gt;compito&lt;/u&gt;: Compito, &lt;u&gt;cuoco&lt;/u&gt;: cuoco)&lt;/b&gt;&lt;/p&gt;" style="text;whiteSpace=wrap;html=1;" parent="1" vertex="1">
          <mxGeometry x="400" y="2040" width="350" height="50" as="geometry" />
        </mxCell>
        <mxCell id="m19O2yobpiMkWHd_PPLP-3" style="edgeStyle=orthogonalEdgeStyle;rounded=0;orthogonalLoop=1;jettySize=auto;html=1;exitX=0.5;exitY=1;exitDx=0;exitDy=0;endArrow=none;endFill=0;dashed=1;entryX=0.02;entryY=1.003;entryDx=0;entryDy=0;entryPerimeter=0;exitPerimeter=0;" parent="1" source="m19O2yobpiMkWHd_PPLP-4" edge="1">
          <mxGeometry relative="1" as="geometry">
            <mxPoint x="85" y="3514" as="targetPoint" />
            <mxPoint x="85" y="2250" as="sourcePoint" />
          </mxGeometry>
        </mxCell>
        <mxCell id="m19O2yobpiMkWHd_PPLP-4" value="UI" style="shape=folder;fontStyle=1;spacingTop=10;tabWidth=40;tabHeight=14;tabPosition=left;html=1;whiteSpace=wrap;fillColor=#fff2cc;strokeColor=#d6b656;" parent="1" vertex="1">
          <mxGeometry x="50" y="2110" width="70" height="50" as="geometry" />
        </mxCell>
        <mxCell id="m19O2yobpiMkWHd_PPLP-6" value="taskManager:KitchenTaskManager" style="html=1;whiteSpace=wrap;fillColor=#fff2cc;strokeColor=#d6b656;" parent="1" vertex="1">
          <mxGeometry x="275" y="2120" width="200" height="30" as="geometry" />
        </mxCell>
        <mxCell id="m19O2yobpiMkWHd_PPLP-7" style="edgeStyle=orthogonalEdgeStyle;rounded=0;orthogonalLoop=1;jettySize=auto;html=1;exitX=0.5;exitY=1;exitDx=0;exitDy=0;endArrow=none;endFill=0;dashed=1;entryX=0.02;entryY=1.003;entryDx=0;entryDy=0;entryPerimeter=0;exitPerimeter=0;" parent="1" edge="1">
          <mxGeometry relative="1" as="geometry">
            <mxPoint x="380" y="3507" as="targetPoint" />
            <mxPoint x="380" y="2153" as="sourcePoint" />
          </mxGeometry>
        </mxCell>
        <mxCell id="m19O2yobpiMkWHd_PPLP-8" value="task: Task" style="html=1;whiteSpace=wrap;fillColor=#fff2cc;strokeColor=#d6b656;" parent="1" vertex="1">
          <mxGeometry x="1222" y="2120" width="109" height="30" as="geometry" />
        </mxCell>
        <mxCell id="m19O2yobpiMkWHd_PPLP-9" value="ktListener: KitchenTaskEventReceiver" style="html=1;whiteSpace=wrap;fillColor=#fff2cc;strokeColor=#d6b656;" parent="1" vertex="1">
          <mxGeometry x="550" y="2120" width="160" height="30" as="geometry" />
        </mxCell>
        <mxCell id="m19O2yobpiMkWHd_PPLP-10" style="edgeStyle=orthogonalEdgeStyle;rounded=0;orthogonalLoop=1;jettySize=auto;html=1;exitX=0.5;exitY=1;exitDx=0;exitDy=0;endArrow=none;endFill=0;dashed=1;entryX=0.02;entryY=1.003;entryDx=0;entryDy=0;entryPerimeter=0;exitPerimeter=0;" parent="1" edge="1">
          <mxGeometry relative="1" as="geometry">
            <mxPoint x="629.29" y="3504" as="targetPoint" />
            <mxPoint x="629.29" y="2150" as="sourcePoint" />
          </mxGeometry>
        </mxCell>
        <mxCell id="m19O2yobpiMkWHd_PPLP-11" style="edgeStyle=orthogonalEdgeStyle;rounded=0;orthogonalLoop=1;jettySize=auto;html=1;exitX=0.5;exitY=1;exitDx=0;exitDy=0;endArrow=none;endFill=0;dashed=1;entryX=0.02;entryY=1.003;entryDx=0;entryDy=0;entryPerimeter=0;exitPerimeter=0;" parent="1" edge="1">
          <mxGeometry relative="1" as="geometry">
            <mxPoint x="1275.79" y="3504" as="targetPoint" />
            <mxPoint x="1275.79" y="2150" as="sourcePoint" />
          </mxGeometry>
        </mxCell>
        <mxCell id="m19O2yobpiMkWHd_PPLP-15" value="taskManager.currentSheet: summarySheet" style="html=1;whiteSpace=wrap;fillColor=#fff2cc;strokeColor=#d6b656;" parent="1" vertex="1">
          <mxGeometry x="730" y="2120" width="170" height="30" as="geometry" />
        </mxCell>
        <mxCell id="m19O2yobpiMkWHd_PPLP-16" style="edgeStyle=orthogonalEdgeStyle;rounded=0;orthogonalLoop=1;jettySize=auto;html=1;exitX=0.5;exitY=1;exitDx=0;exitDy=0;endArrow=none;endFill=0;dashed=1;entryX=0.02;entryY=1.003;entryDx=0;entryDy=0;entryPerimeter=0;exitPerimeter=0;" parent="1" edge="1">
          <mxGeometry relative="1" as="geometry">
            <mxPoint x="820" y="3504" as="targetPoint" />
            <mxPoint x="820" y="2150" as="sourcePoint" />
          </mxGeometry>
        </mxCell>
        <mxCell id="m19O2yobpiMkWHd_PPLP-56" value="deleteAssignedTask(task,cook)" style="html=1;verticalAlign=bottom;endArrow=block;edgeStyle=elbowEdgeStyle;elbow=vertical;curved=0;rounded=0;" parent="1" edge="1">
          <mxGeometry width="80" relative="1" as="geometry">
            <mxPoint x="90" y="2170" as="sourcePoint" />
            <mxPoint x="380" y="2170" as="targetPoint" />
          </mxGeometry>
        </mxCell>
        <mxCell id="m19O2yobpiMkWHd_PPLP-57" value="deleteAssignedTask(task,cook)" style="html=1;verticalAlign=bottom;endArrow=block;edgeStyle=elbowEdgeStyle;elbow=vertical;curved=0;rounded=0;" parent="1" edge="1">
          <mxGeometry x="-0.5906" width="80" relative="1" as="geometry">
            <mxPoint x="380" y="2260" as="sourcePoint" />
            <mxPoint x="820" y="2260" as="targetPoint" />
            <mxPoint as="offset" />
          </mxGeometry>
        </mxCell>
        <mxCell id="m19O2yobpiMkWHd_PPLP-59" value="deleteAssignedTask(cook)" style="html=1;verticalAlign=bottom;endArrow=block;edgeStyle=elbowEdgeStyle;elbow=vertical;curved=0;rounded=0;" parent="1" source="m19O2yobpiMkWHd_PPLP-75" edge="1">
          <mxGeometry x="-0.1756" width="80" relative="1" as="geometry">
            <mxPoint x="1000" y="2300.11" as="sourcePoint" />
            <mxPoint x="1270" y="2300" as="targetPoint" />
            <mxPoint as="offset" />
          </mxGeometry>
        </mxCell>
        <mxCell id="m19O2yobpiMkWHd_PPLP-60" value="newTask.cooks: ArrayList&amp;lt;Cook&amp;gt;" style="html=1;whiteSpace=wrap;fillColor=#fff2cc;strokeColor=#d6b656;" parent="1" vertex="1">
          <mxGeometry x="1450" y="2120" width="109" height="30" as="geometry" />
        </mxCell>
        <mxCell id="m19O2yobpiMkWHd_PPLP-61" style="edgeStyle=orthogonalEdgeStyle;rounded=0;orthogonalLoop=1;jettySize=auto;html=1;exitX=0.5;exitY=1;exitDx=0;exitDy=0;endArrow=none;endFill=0;dashed=1;entryX=0.02;entryY=1.003;entryDx=0;entryDy=0;entryPerimeter=0;exitPerimeter=0;" parent="1" edge="1">
          <mxGeometry relative="1" as="geometry">
            <mxPoint x="1504" y="3504" as="targetPoint" />
            <mxPoint x="1504" y="2150" as="sourcePoint" />
          </mxGeometry>
        </mxCell>
        <mxCell id="m19O2yobpiMkWHd_PPLP-62" value="delete(cook)" style="html=1;verticalAlign=bottom;endArrow=block;edgeStyle=elbowEdgeStyle;elbow=vertical;curved=0;rounded=0;" parent="1" edge="1">
          <mxGeometry x="-0.1756" width="80" relative="1" as="geometry">
            <mxPoint x="1280" y="2337.32" as="sourcePoint" />
            <mxPoint x="1500" y="2337" as="targetPoint" />
            <mxPoint as="offset" />
          </mxGeometry>
        </mxCell>
        <mxCell id="m19O2yobpiMkWHd_PPLP-64" value="task" style="html=1;verticalAlign=bottom;endArrow=open;dashed=1;endSize=8;edgeStyle=elbowEdgeStyle;elbow=vertical;curved=0;rounded=0;" parent="1" target="m19O2yobpiMkWHd_PPLP-75" edge="1">
          <mxGeometry relative="1" as="geometry">
            <mxPoint x="1270" y="2390.11" as="sourcePoint" />
            <mxPoint x="1000" y="2390" as="targetPoint" />
          </mxGeometry>
        </mxCell>
        <mxCell id="m19O2yobpiMkWHd_PPLP-66" value="task" style="html=1;verticalAlign=bottom;endArrow=open;dashed=1;endSize=8;edgeStyle=elbowEdgeStyle;elbow=vertical;curved=0;rounded=0;" parent="1" edge="1">
          <mxGeometry relative="1" as="geometry">
            <mxPoint x="813" y="2560.11" as="sourcePoint" />
            <mxPoint x="378.31581517269734" y="2560" as="targetPoint" />
          </mxGeometry>
        </mxCell>
        <mxCell id="m19O2yobpiMkWHd_PPLP-67" value="&lt;font style=&quot;font-size: 10px;&quot;&gt;LOOP:for all ktListener in eventReceiver&lt;/font&gt;" style="shape=umlFrame;whiteSpace=wrap;html=1;pointerEvents=0;width=200;height=20;" parent="1" vertex="1">
          <mxGeometry x="347.5" y="2670" width="302.5" height="101" as="geometry" />
        </mxCell>
        <mxCell id="m19O2yobpiMkWHd_PPLP-68" value="notifyDeletedAssignedtask(task)" style="html=1;align=left;spacingLeft=2;endArrow=block;rounded=0;edgeStyle=orthogonalEdgeStyle;curved=0;rounded=0;" parent="1" edge="1">
          <mxGeometry relative="1" as="geometry">
            <mxPoint x="380" y="2630" as="sourcePoint" />
            <Array as="points">
              <mxPoint x="410" y="2660" />
            </Array>
            <mxPoint x="385" y="2660.0526315789475" as="targetPoint" />
          </mxGeometry>
        </mxCell>
        <mxCell id="m19O2yobpiMkWHd_PPLP-69" value="updateDeletedAssignedtask(task)" style="html=1;verticalAlign=bottom;endArrow=block;edgeStyle=elbowEdgeStyle;elbow=vertical;curved=0;rounded=0;align=center;" parent="1" edge="1">
          <mxGeometry x="-0.0821" width="80" relative="1" as="geometry">
            <mxPoint x="380" y="2720.24" as="sourcePoint" />
            <mxPoint x="620" y="2720" as="targetPoint" />
            <mxPoint as="offset" />
          </mxGeometry>
        </mxCell>
        <mxCell id="m19O2yobpiMkWHd_PPLP-70" value="" style="html=1;points=[];perimeter=orthogonalPerimeter;outlineConnect=0;targetShapes=umlLifeline;portConstraint=eastwest;newEdgeStyle={&quot;edgeStyle&quot;:&quot;elbowEdgeStyle&quot;,&quot;elbow&quot;:&quot;vertical&quot;,&quot;curved&quot;:0,&quot;rounded&quot;:0};shadow=0;imageAspect=1;fillOpacity=50;strokeOpacity=50;" parent="1" vertex="1">
          <mxGeometry x="622.5" y="2720" width="15" height="31" as="geometry" />
        </mxCell>
        <mxCell id="m19O2yobpiMkWHd_PPLP-71" value="newTask" style="html=1;verticalAlign=bottom;endArrow=open;dashed=1;endSize=8;edgeStyle=elbowEdgeStyle;elbow=vertical;curved=0;rounded=0;" parent="1" edge="1">
          <mxGeometry relative="1" as="geometry">
            <mxPoint x="380" y="2781" as="sourcePoint" />
            <mxPoint x="89.99581517269735" y="2780.5" as="targetPoint" />
          </mxGeometry>
        </mxCell>
        <mxCell id="m19O2yobpiMkWHd_PPLP-72" value="" style="html=1;points=[];perimeter=orthogonalPerimeter;outlineConnect=0;targetShapes=umlLifeline;portConstraint=eastwest;newEdgeStyle={&quot;edgeStyle&quot;:&quot;elbowEdgeStyle&quot;,&quot;elbow&quot;:&quot;vertical&quot;,&quot;curved&quot;:0,&quot;rounded&quot;:0};shadow=0;imageAspect=1;fillOpacity=50;strokeOpacity=50;" parent="1" vertex="1">
          <mxGeometry x="1267.5" y="2300" width="15" height="90" as="geometry" />
        </mxCell>
        <mxCell id="m19O2yobpiMkWHd_PPLP-73" value="" style="html=1;points=[];perimeter=orthogonalPerimeter;outlineConnect=0;targetShapes=umlLifeline;portConstraint=eastwest;newEdgeStyle={&quot;edgeStyle&quot;:&quot;elbowEdgeStyle&quot;,&quot;elbow&quot;:&quot;vertical&quot;,&quot;curved&quot;:0,&quot;rounded&quot;:0};shadow=0;imageAspect=1;fillOpacity=50;strokeOpacity=50;" parent="1" vertex="1">
          <mxGeometry x="1497" y="2338" width="15" height="12" as="geometry" />
        </mxCell>
        <mxCell id="m19O2yobpiMkWHd_PPLP-75" value="" style="html=1;points=[];perimeter=orthogonalPerimeter;outlineConnect=0;targetShapes=umlLifeline;portConstraint=eastwest;newEdgeStyle={&quot;edgeStyle&quot;:&quot;elbowEdgeStyle&quot;,&quot;elbow&quot;:&quot;vertical&quot;,&quot;curved&quot;:0,&quot;rounded&quot;:0};shadow=0;imageAspect=1;fillOpacity=50;strokeOpacity=50;" parent="1" vertex="1">
          <mxGeometry x="812" y="2260" width="15" height="300" as="geometry" />
        </mxCell>
        <mxCell id="m19O2yobpiMkWHd_PPLP-76" value="" style="html=1;points=[];perimeter=orthogonalPerimeter;outlineConnect=0;targetShapes=umlLifeline;portConstraint=eastwest;newEdgeStyle={&quot;edgeStyle&quot;:&quot;elbowEdgeStyle&quot;,&quot;elbow&quot;:&quot;vertical&quot;,&quot;curved&quot;:0,&quot;rounded&quot;:0};shadow=0;imageAspect=1;fillOpacity=50;strokeOpacity=50;" parent="1" vertex="1">
          <mxGeometry x="370" y="2170" width="20" height="620" as="geometry" />
        </mxCell>
        <mxCell id="T-stnrGTQzEAJzA2hUXw-1" value="ALT task.isDone()" style="shape=umlFrame;whiteSpace=wrap;html=1;pointerEvents=0;width=200;height=20;fillColor=#f8cecc;strokeColor=#b85450;" parent="1" vertex="1">
          <mxGeometry x="70" y="2180" width="1470" height="610" as="geometry" />
        </mxCell>
        <mxCell id="T-stnrGTQzEAJzA2hUXw-2" value="throw TaskException" style="html=1;verticalAlign=bottom;endArrow=open;dashed=1;endSize=8;edgeStyle=elbowEdgeStyle;elbow=vertical;curved=0;rounded=0;" parent="1" source="m19O2yobpiMkWHd_PPLP-76" edge="1">
          <mxGeometry relative="1" as="geometry">
            <mxPoint x="240" y="2230.38" as="sourcePoint" />
            <mxPoint x="90" y="2230" as="targetPoint" />
          </mxGeometry>
        </mxCell>
        <mxCell id="T-stnrGTQzEAJzA2hUXw-3" value="" style="html=1;verticalAlign=bottom;endArrow=none;dashed=1;endSize=8;edgeStyle=elbowEdgeStyle;elbow=vertical;curved=0;rounded=0;entryX=0.002;entryY=0.101;entryDx=0;entryDy=0;entryPerimeter=0;fillColor=#f8cecc;strokeColor=#b85450;endFill=0;exitX=1;exitY=0.097;exitDx=0;exitDy=0;exitPerimeter=0;" parent="1" source="T-stnrGTQzEAJzA2hUXw-1" target="T-stnrGTQzEAJzA2hUXw-1" edge="1">
          <mxGeometry relative="1" as="geometry">
            <mxPoint x="1570.4761904761904" y="2230" as="sourcePoint" />
            <mxPoint x="90" y="2240" as="targetPoint" />
          </mxGeometry>
        </mxCell>
      </root>
    </mxGraphModel>
  </diagram>
</mxfile>
